{
    "asset" : {
        "generator" : "Khronos glTF Blender I/O v1.8.19",
        "version" : "2.0"
    },
    "scene" : 0,
    "scenes" : [
        {
            "name" : "Scene",
            "nodes" : [
                0,
                1,
                2
            ]
        }
    ],
    "nodes" : [
        {
            "mesh" : 0,
            "name" : "Plane",
            "rotation" : [
                0.4996955096721649,
                -0.5003042817115784,
                0.5003043413162231,
                0.49969547986984253
            ],
            "scale" : [
                0.8167271018028259,
                0.8167271018028259,
                0.8167270421981812
            ],
            "translation" : [
                -0.15514245629310608,
                0.6717458963394165,
                0.009686151519417763
            ]
        },
        {
            "mesh" : 1,
            "name" : "Plane.001",
            "rotation" : [
                0.4996955096721649,
                -0.5003042817115784,
                0.5003043413162231,
                0.49969547986984253
            ],
            "scale" : [
                0.8167271018028259,
                1.045939564704895,
                0.8167270421981812
            ],
            "translation" : [
                -0.17885169386863708,
                0.6717458963394165,
                0.00965728797018528
            ]
        },
        {
            "mesh" : 2,
            "name" : "Plane.002",
            "rotation" : [
                0.4996955096721649,
                -0.5003042817115784,
                0.5003043413162231,
                0.49969547986984253
            ],
            "scale" : [
                0.8167271018028259,
                0.8167271018028259,
                0.8167270421981812
            ],
            "translation" : [
                -0.15514245629310608,
                0.6717458963394165,
                0.009686151519417763
            ]
        }
    ],
    "materials" : [
        {
            "doubleSided" : true,
            "name" : "Material.001",
            "pbrMetallicRoughness" : {
                "baseColorFactor" : [
                    0.5287832617759705,
                    0.4496283233165741,
                    0.3150174021720886,
                    1
                ],
                "metallicFactor" : 0,
                "roughnessFactor" : 0.5
            }
        },
        {
            "doubleSided" : true,
            "name" : "Material.002",
            "pbrMetallicRoughness" : {
                "baseColorFactor" : [
                    0.34670397639274597,
                    0.2872013449668884,
                    0.16359123587608337,
                    1
                ],
                "metallicFactor" : 0,
                "roughnessFactor" : 0.5
            }
        }
    ],
    "meshes" : [
        {
            "name" : "Plane",
            "primitives" : [
                {
                    "attributes" : {
                        "POSITION" : 0,
                        "NORMAL" : 1,
                        "TEXCOORD_0" : 2
                    },
                    "indices" : 3,
                    "material" : 0
                }
            ]
        },
        {
            "name" : "Plane.001",
            "primitives" : [
                {
                    "attributes" : {
                        "POSITION" : 4,
                        "NORMAL" : 5,
                        "TEXCOORD_0" : 6
                    },
                    "indices" : 7,
                    "material" : 1
                }
            ]
        },
        {
            "name" : "Plane.002",
            "primitives" : [
                {
                    "attributes" : {
                        "POSITION" : 8,
                        "NORMAL" : 9,
                        "TEXCOORD_0" : 10
                    },
                    "indices" : 11,
                    "material" : 1
                }
            ]
        }
    ],
    "accessors" : [
        {
            "bufferView" : 0,
            "componentType" : 5126,
            "count" : 1332,
            "max" : [
                1,
                4.99467205372639e-05,
                1
            ],
            "min" : [
                -1,
                -0.38967061042785645,
                -2.2189066410064697
            ],
            "type" : "VEC3"
        },
        {
            "bufferView" : 1,
            "componentType" : 5126,
            "count" : 1332,
            "type" : "VEC3"
        },
        {
            "bufferView" : 2,
            "componentType" : 5126,
            "count" : 1332,
            "type" : "VEC2"
        },
        {
            "bufferView" : 3,
            "componentType" : 5123,
            "count" : 2766,
            "type" : "SCALAR"
        },
        {
            "bufferView" : 4,
            "componentType" : 5126,
            "count" : 528,
            "max" : [
                1.0618643760681152,
                0.04619129002094269,
                0.7728933095932007
            ],
            "min" : [
                -1.0536158084869385,
                -0.42167383432388306,
                -2.3009700775146484
            ],
            "type" : "VEC3"
        },
        {
            "bufferView" : 5,
            "componentType" : 5126,
            "count" : 528,
            "type" : "VEC3"
        },
        {
            "bufferView" : 6,
            "componentType" : 5126,
            "count" : 528,
            "type" : "VEC2"
        },
        {
            "bufferView" : 7,
            "componentType" : 5123,
            "count" : 984,
            "type" : "SCALAR"
        },
        {
            "bufferView" : 8,
            "componentType" : 5126,
            "count" : 72,
            "max" : [
                0.23541194200515747,
                0.049418337643146515,
                1.0362553596496582
            ],
            "min" : [
                -0.6551393866539001,
                -0.4331413805484772,
                0.6781060695648193
            ],
            "type" : "VEC3"
        },
        {
            "bufferView" : 9,
            "componentType" : 5126,
            "count" : 72,
            "type" : "VEC3"
        },
        {
            "bufferView" : 10,
            "componentType" : 5126,
            "count" : 72,
            "type" : "VEC2"
        },
        {
            "bufferView" : 11,
            "componentType" : 5123,
            "count" : 132,
            "type" : "SCALAR"
        }
    ],
    "bufferViews" : [
        {
            "buffer" : 0,
            "byteLength" : 15984,
            "byteOffset" : 0
        },
        {
            "buffer" : 0,
            "byteLength" : 15984,
            "byteOffset" : 15984
        },
        {
            "buffer" : 0,
            "byteLength" : 10656,
            "byteOffset" : 31968
        },
        {
            "buffer" : 0,
            "byteLength" : 5532,
            "byteOffset" : 42624
        },
        {
            "buffer" : 0,
            "byteLength" : 6336,
            "byteOffset" : 48156
        },
        {
            "buffer" : 0,
            "byteLength" : 6336,
            "byteOffset" : 54492
        },
        {
            "buffer" : 0,
            "byteLength" : 4224,
            "byteOffset" : 60828
        },
        {
            "buffer" : 0,
            "byteLength" : 1968,
            "byteOffset" : 65052
        },
        {
            "buffer" : 0,
            "byteLength" : 864,
            "byteOffset" : 67020
        },
        {
            "buffer" : 0,
            "byteLength" : 864,
            "byteOffset" : 67884
        },
        {
            "buffer" : 0,
            "byteLength" : 576,
            "byteOffset" : 68748
        },
        {
            "buffer" : 0,
            "byteLength" : 264,
            "byteOffset" : 69324
        }
    ],
    "buffers" : [
        {
            "byteLength" : 69588,
            "uri" : "portal.bin"
        }
    ]
}
