{
  "accessors": [
    {
      "bufferView": 2,
      "componentType": 5126,
      "count": 65532,
      "max": [
        38.745216369628906,
        29.026512145996094,
        21.829254150390625
      ],
      "min": [
        -18.410133361816406,
        -18.744476318359375,
        -2.8525781631469727
      ],
      "type": "VEC3"
    },
    {
      "bufferView": 2,
      "byteOffset": 786384,
      "componentType": 5126,
      "count": 65532,
      "max": [
        0.9999655485153198,
        0.9999895691871643,
        1.0
      ],
      "min": [
        -0.9999998211860657,
        -0.9999991059303284,
        -1.0
      ],
      "type": "VEC3"
    },
    {
      "bufferView": 1,
      "componentType": 5126,
      "count": 65532,
      "max": [
        0.9998149871826172,
        0.7301030158996582
      ],
      "min": [
        0.00012199999764561653,
        0.010730000212788582
      ],
      "type": "VEC2"
    },
    {
      "bufferView": 0,
      "componentType": 5125,
      "count": 262494,
      "type": "SCALAR"
    },
    {
      "bufferView": 2,
      "byteOffset": 1572768,
      "componentType": 5126,
      "count": 65532,
      "max": [
        17.39316177368164,
        13.358142852783203,
        21.782146453857422
      ],
      "min": [
        -15.731978416442871,
        -15.33284854888916,
        -2.852534294128418
      ],
      "type": "VEC3"
    },
    {
      "bufferView": 2,
      "byteOffset": 2359152,
      "componentType": 5126,
      "count": 65532,
      "max": [
        0.9999952912330627,
        0.9999912977218628,
        1.0
      ],
      "min": [
        -0.9999974966049194,
        -0.9999997019767761,
        -1.0
      ],
      "type": "VEC3"
    },
    {
      "bufferView": 1,
      "byteOffset": 524256,
      "componentType": 5126,
      "count": 65532,
      "max": [
        0.9995800256729126,
        0.7301030158996582
      ],
      "min": [
        0.0015869999770075083,
        0.06292299926280975
      ],
      "type": "VEC2"
    },
    {
      "bufferView": 0,
      "byteOffset": 1049976,
      "componentType": 5125,
      "count": 297321,
      "type": "SCALAR"
    },
    {
      "bufferView": 2,
      "byteOffset": 3145536,
      "componentType": 5126,
      "count": 65532,
      "max": [
        15.683879852294922,
        13.339055061340332,
        18.76294708251953
      ],
      "min": [
        -15.721879005432129,
        -15.160654067993164,
        -1.7138595581054688
      ],
      "type": "VEC3"
    },
    {
      "bufferView": 2,
      "byteOffset": 3931920,
      "componentType": 5126,
      "count": 65532,
      "max": [
        0.9999948143959045,
        0.9999985694885254,
        1.0
      ],
      "min": [
        -1.0,
        -0.999995231628418,
        -0.9983259439468384
      ],
      "type": "VEC3"
    },
    {
      "bufferView": 1,
      "byteOffset": 1048512,
      "componentType": 5126,
      "count": 65532,
      "max": [
        0.9988440275192261,
        0.7301030158996582
      ],
      "min": [
        0.00012199999764561653,
        0.03836600109934807
      ],
      "type": "VEC2"
    },
    {
      "bufferView": 0,
      "byteOffset": 2239260,
      "componentType": 5125,
      "count": 286404,
      "type": "SCALAR"
    },
    {
      "bufferView": 2,
      "byteOffset": 4718304,
      "componentType": 5126,
      "count": 65532,
      "max": [
        14.387503623962402,
        13.345075607299805,
        19.752456665039063
      ],
      "min": [
        -15.74320125579834,
        -15.35797119140625,
        1.1307272911071777
      ],
      "type": "VEC3"
    },
    {
      "bufferView": 2,
      "byteOffset": 5504688,
      "componentType": 5126,
      "count": 65532,
      "max": [
        0.9999940395355225,
        0.9999978542327881,
        1.0
      ],
      "min": [
        -0.9999986886978149,
        -0.9999994039535522,
        -1.0
      ],
      "type": "VEC3"
    },
    {
      "bufferView": 1,
      "byteOffset": 1572768,
      "componentType": 5126,
      "count": 65532,
      "max": [
        0.9990249872207642,
        0.7301030158996582
      ],
      "min": [
        0.00012199999764561653,
        0.06724099814891815
      ],
      "type": "VEC2"
    },
    {
      "bufferView": 0,
      "byteOffset": 3384876,
      "componentType": 5125,
      "count": 280608,
      "type": "SCALAR"
    },
    {
      "bufferView": 2,
      "byteOffset": 6291072,
      "componentType": 5126,
      "count": 65532,
      "max": [
        16.867097854614258,
        16.95960235595703,
        21.782180786132813
      ],
      "min": [
        -15.74320125579834,
        -15.327616691589355,
        -1.4258575439453125
      ],
      "type": "VEC3"
    },
    {
      "bufferView": 2,
      "byteOffset": 7077456,
      "componentType": 5126,
      "count": 65532,
      "max": [
        0.9999993443489075,
        0.9999997019767761,
        1.0
      ],
      "min": [
        -0.9999992847442627,
        -0.9999991655349731,
        -1.0
      ],
      "type": "VEC3"
    },
    {
      "bufferView": 1,
      "byteOffset": 2097024,
      "componentType": 5126,
      "count": 65532,
      "max": [
        0.9997879862785339,
        0.7301030158996582
      ],
      "min": [
        0.00012199999764561653,
        0.00037799999699927866
      ],
      "type": "VEC2"
    },
    {
      "bufferView": 0,
      "byteOffset": 4507308,
      "componentType": 5125,
      "count": 258873,
      "type": "SCALAR"
    },
    {
      "bufferView": 2,
      "byteOffset": 7863840,
      "componentType": 5126,
      "count": 65532,
      "max": [
        14.489185333251953,
        13.350052833557129,
        19.77536392211914
      ],
      "min": [
        -15.738059997558594,
        -15.351301193237305,
        1.1461963653564453
      ],
      "type": "VEC3"
    },
    {
      "bufferView": 2,
      "byteOffset": 8650224,
      "componentType": 5126,
      "count": 65532,
      "max": [
        0.9999940395355225,
        0.9999993443489075,
        1.0
      ],
      "min": [
        -0.9999954700469971,
        -0.9999960660934448,
        -0.9999999403953552
      ],
      "type": "VEC3"
    },
    {
      "bufferView": 1,
      "byteOffset": 2621280,
      "componentType": 5126,
      "count": 65532,
      "max": [
        0.9994069933891296,
        0.7301030158996582
      ],
      "min": [
        0.00012199999764561653,
        0.0006140000186860561
      ],
      "type": "VEC2"
    },
    {
      "bufferView": 0,
      "byteOffset": 5542800,
      "componentType": 5125,
      "count": 240111,
      "type": "SCALAR"
    },
    {
      "bufferView": 2,
      "byteOffset": 9436608,
      "componentType": 5126,
      "count": 65532,
      "max": [
        14.455938339233398,
        13.661567687988281,
        21.782146453857422
      ],
      "min": [
        -15.62559986114502,
        -18.263431549072266,
        -0.38327884674072266
      ],
      "type": "VEC3"
    },
    {
      "bufferView": 2,
      "byteOffset": 10222992,
      "componentType": 5126,
      "count": 65532,
      "max": [
        0.999984860420227,
        0.9999996423721313,
        0.9999999403953552
      ],
      "min": [
        -0.9999977350234985,
        -0.9999983310699463,
        -1.0
      ],
      "type": "VEC3"
    },
    {
      "bufferView": 1,
      "byteOffset": 3145536,
      "componentType": 5126,
      "count": 65532,
      "max": [
        0.9997749924659729,
        0.7301030158996582
      ],
      "min": [
        0.00012199999764561653,
        0.008697999641299248
      ],
      "type": "VEC2"
    },
    {
      "bufferView": 0,
      "byteOffset": 6503244,
      "componentType": 5125,
      "count": 251097,
      "type": "SCALAR"
    },
    {
      "bufferView": 2,
      "byteOffset": 11009376,
      "componentType": 5126,
      "count": 65532,
      "max": [
        24.55779457092285,
        23.842010498046875,
        21.782238006591797
      ],
      "min": [
        -15.718338012695313,
        -18.02829360961914,
        -0.584259033203125
      ],
      "type": "VEC3"
    },
    {
      "bufferView": 2,
      "byteOffset": 11795760,
      "componentType": 5126,
      "count": 65532,
      "max": [
        0.9999602437019348,
        0.9999994039535522,
        1.0
      ],
      "min": [
        -0.9999998807907104,
        -0.9999997019767761,
        -0.9999997615814209
      ],
      "type": "VEC3"
    },
    {
      "bufferView": 1,
      "byteOffset": 3669792,
      "componentType": 5126,
      "count": 65532,
      "max": [
        0.9997419714927673,
        0.7301030158996582
      ],
      "min": [
        0.00012199999764561653,
        0.00039900001138448715
      ],
      "type": "VEC2"
    },
    {
      "bufferView": 0,
      "byteOffset": 7507632,
      "componentType": 5125,
      "count": 223305,
      "type": "SCALAR"
    },
    {
      "bufferView": 2,
      "byteOffset": 12582144,
      "componentType": 5126,
      "count": 65532,
      "max": [
        17.38945198059082,
        13.350019454956055,
        21.782146453857422
      ],
      "min": [
        -15.708155632019043,
        -15.278815269470215,
        -2.852534294128418
      ],
      "type": "VEC3"
    },
    {
      "bufferView": 2,
      "byteOffset": 13368528,
      "componentType": 5126,
      "count": 65532,
      "max": [
        0.9999868273735046,
        0.9999958872795105,
        1.0
      ],
      "min": [
        -0.9999977946281433,
        -0.9999991655349731,
        -1.0
      ],
      "type": "VEC3"
    },
    {
      "bufferView": 1,
      "byteOffset": 4194048,
      "componentType": 5126,
      "count": 65532,
      "max": [
        0.9997749924659729,
        0.7301030158996582
      ],
      "min": [
        0.00012199999764561653,
        0.00038400001358240843
      ],
      "type": "VEC2"
    },
    {
      "bufferView": 0,
      "byteOffset": 8400852,
      "componentType": 5125,
      "count": 222138,
      "type": "SCALAR"
    },
    {
      "bufferView": 2,
      "byteOffset": 14154912,
      "componentType": 5126,
      "count": 65532,
      "max": [
        25.81510353088379,
        27.1346435546875,
        19.754302978515625
      ],
      "min": [
        -14.74752140045166,
        -15.259082794189453,
        -2.852534294128418
      ],
      "type": "VEC3"
    },
    {
      "bufferView": 2,
      "byteOffset": 14941296,
      "componentType": 5126,
      "count": 65532,
      "max": [
        0.9999858736991882,
        0.999995231628418,
        1.0
      ],
      "min": [
        -0.9999980926513672,
        -0.9999898076057434,
        -1.0
      ],
      "type": "VEC3"
    },
    {
      "bufferView": 1,
      "byteOffset": 4718304,
      "componentType": 5126,
      "count": 65532,
      "max": [
        0.999783992767334,
        0.7303469777107239
      ],
      "min": [
        0.00012199999764561653,
        0.0004670000053010881
      ],
      "type": "VEC2"
    },
    {
      "bufferView": 0,
      "byteOffset": 9289404,
      "componentType": 5125,
      "count": 207678,
      "type": "SCALAR"
    },
    {
      "bufferView": 2,
      "byteOffset": 15727680,
      "componentType": 5126,
      "count": 65532,
      "max": [
        15.510882377624512,
        8.794413566589355,
        21.782146453857422
      ],
      "min": [
        -14.471041679382324,
        -15.282846450805664,
        0.14173126220703125
      ],
      "type": "VEC3"
    },
    {
      "bufferView": 2,
      "byteOffset": 16514064,
      "componentType": 5126,
      "count": 65532,
      "max": [
        0.999983549118042,
        0.9999998807907104,
        1.0
      ],
      "min": [
        -0.9998963475227356,
        -0.9999778866767883,
        -0.9999998807907104
      ],
      "type": "VEC3"
    },
    {
      "bufferView": 1,
      "byteOffset": 5242560,
      "componentType": 5126,
      "count": 65532,
      "max": [
        0.9997379779815674,
        0.7303469777107239
      ],
      "min": [
        0.00012199999764561653,
        0.0003169999981764704
      ],
      "type": "VEC2"
    },
    {
      "bufferView": 0,
      "byteOffset": 10120116,
      "componentType": 5125,
      "count": 195924,
      "type": "SCALAR"
    },
    {
      "bufferView": 2,
      "byteOffset": 17300448,
      "componentType": 5126,
      "count": 65533,
      "max": [
        17.373815536499023,
        13.395855903625488,
        21.782146453857422
      ],
      "min": [
        -15.725801467895508,
        -15.342312812805176,
        -2.852534294128418
      ],
      "type": "VEC3"
    },
    {
      "bufferView": 2,
      "byteOffset": 18086844,
      "componentType": 5126,
      "count": 65533,
      "max": [
        0.9999724626541138,
        0.9999964833259583,
        1.0
      ],
      "min": [
        -0.999997615814209,
        -0.9999886155128479,
        -1.0
      ],
      "type": "VEC3"
    },
    {
      "bufferView": 1,
      "byteOffset": 5766816,
      "componentType": 5126,
      "count": 65533,
      "max": [
        0.9997270107269287,
        0.7303469777107239
      ],
      "min": [
        0.00012199999764561653,
        0.00044999999227002263
      ],
      "type": "VEC2"
    },
    {
      "bufferView": 0,
      "byteOffset": 10903812,
      "componentType": 5125,
      "count": 168825,
      "type": "SCALAR"
    },
    {
      "bufferView": 2,
      "byteOffset": 18873240,
      "componentType": 5126,
      "count": 52739,
      "max": [
        17.543554306030273,
        13.355607986450195,
        21.782146453857422
      ],
      "min": [
        -17.090070724487305,
        -16.127182006835938,
        -2.852534294128418
      ],
      "type": "VEC3"
    },
    {
      "bufferView": 2,
      "byteOffset": 19506108,
      "componentType": 5126,
      "count": 52739,
      "max": [
        0.9999877214431763,
        0.9999967813491821,
        1.0
      ],
      "min": [
        -0.9999935030937195,
        -0.9999877214431763,
        -1.0
      ],
      "type": "VEC3"
    },
    {
      "bufferView": 1,
      "byteOffset": 6291080,
      "componentType": 5126,
      "count": 52739,
      "max": [
        0.9997950196266174,
        0.7303469777107239
      ],
      "min": [
        0.00012199999764561653,
        0.00535399978980422
      ],
      "type": "VEC2"
    },
    {
      "bufferView": 0,
      "byteOffset": 11579112,
      "componentType": 5125,
      "count": 105219,
      "type": "SCALAR"
    }
  ],
  "asset": {
    "extras": {
      "author": "The Hallwyl Museum (Hallwylska museet) (https://sketchfab.com/TheHallwylMuseum)",
      "license": "CC-BY-4.0 (http://creativecommons.org/licenses/by/4.0/)",
      "source": "https://sketchfab.com/3d-models/the-small-drawing-room-3a6385844d0647d382a72661bbc556f7",
      "title": "The Small Drawing Room"
    },
    "generator": "Sketchfab-12.65.0",
    "version": "2.0"
  },
  "bufferViews": [
    {
      "buffer": 0,
      "byteLength": 11999988,
      "name": "floatBufferViews",
      "target": 34963
    },
    {
      "buffer": 0,
      "byteLength": 6712992,
      "byteOffset": 11999988,
      "byteStride": 8,
      "name": "floatBufferViews",
      "target": 34962
    },
    {
      "buffer": 0,
      "byteLength": 20138976,
      "byteOffset": 18712980,
      "byteStride": 12,
      "name": "floatBufferViews",
      "target": 34962
    }
  ],
  "buffers": [
    {
      "byteLength": 38851956,
      "uri": "scene.bin"
    }
  ],
  "extensionsUsed": [
    "KHR_materials_unlit"
  ],
  "images": [
    {
      "uri": "textures/model_Material_u1_v1_baseColor.jpeg"
    }
  ],
  "materials": [
    {
      "extensions": {
        "KHR_materials_unlit": {}
      },
      "name": "model_Material_u1_v1",
      "pbrMetallicRoughness": {
        "baseColorTexture": {
          "index": 0
        },
        "metallicFactor": 0.0
      }
    }
  ],
  "meshes": [
    {
      "name": "Object_0",
      "primitives": [
        {
          "attributes": {
            "NORMAL": 1,
            "POSITION": 0,
            "TEXCOORD_0": 2
          },
          "indices": 3,
          "material": 0,
          "mode": 4
        }
      ]
    },
    {
      "name": "Object_1",
      "primitives": [
        {
          "attributes": {
            "NORMAL": 5,
            "POSITION": 4,
            "TEXCOORD_0": 6
          },
          "indices": 7,
          "material": 0,
          "mode": 4
        }
      ]
    },
    {
      "name": "Object_2",
      "primitives": [
        {
          "attributes": {
            "NORMAL": 9,
            "POSITION": 8,
            "TEXCOORD_0": 10
          },
          "indices": 11,
          "material": 0,
          "mode": 4
        }
      ]
    },
    {
      "name": "Object_3",
      "primitives": [
        {
          "attributes": {
            "NORMAL": 13,
            "POSITION": 12,
            "TEXCOORD_0": 14
          },
          "indices": 15,
          "material": 0,
          "mode": 4
        }
      ]
    },
    {
      "name": "Object_4",
      "primitives": [
        {
          "attributes": {
            "NORMAL": 17,
            "POSITION": 16,
            "TEXCOORD_0": 18
          },
          "indices": 19,
          "material": 0,
          "mode": 4
        }
      ]
    },
    {
      "name": "Object_5",
      "primitives": [
        {
          "attributes": {
            "NORMAL": 21,
            "POSITION": 20,
            "TEXCOORD_0": 22
          },
          "indices": 23,
          "material": 0,
          "mode": 4
        }
      ]
    },
    {
      "name": "Object_6",
      "primitives": [
        {
          "attributes": {
            "NORMAL": 25,
            "POSITION": 24,
            "TEXCOORD_0": 26
          },
          "indices": 27,
          "material": 0,
          "mode": 4
        }
      ]
    },
    {
      "name": "Object_7",
      "primitives": [
        {
          "attributes": {
            "NORMAL": 29,
            "POSITION": 28,
            "TEXCOORD_0": 30
          },
          "indices": 31,
          "material": 0,
          "mode": 4
        }
      ]
    },
    {
      "name": "Object_8",
      "primitives": [
        {
          "attributes": {
            "NORMAL": 33,
            "POSITION": 32,
            "TEXCOORD_0": 34
          },
          "indices": 35,
          "material": 0,
          "mode": 4
        }
      ]
    },
    {
      "name": "Object_9",
      "primitives": [
        {
          "attributes": {
            "NORMAL": 37,
            "POSITION": 36,
            "TEXCOORD_0": 38
          },
          "indices": 39,
          "material": 0,
          "mode": 4
        }
      ]
    },
    {
      "name": "Object_10",
      "primitives": [
        {
          "attributes": {
            "NORMAL": 41,
            "POSITION": 40,
            "TEXCOORD_0": 42
          },
          "indices": 43,
          "material": 0,
          "mode": 4
        }
      ]
    },
    {
      "name": "Object_11",
      "primitives": [
        {
          "attributes": {
            "NORMAL": 45,
            "POSITION": 44,
            "TEXCOORD_0": 46
          },
          "indices": 47,
          "material": 0,
          "mode": 4
        }
      ]
    },
    {
      "name": "Object_12",
      "primitives": [
        {
          "attributes": {
            "NORMAL": 49,
            "POSITION": 48,
            "TEXCOORD_0": 50
          },
          "indices": 51,
          "material": 0,
          "mode": 4
        }
      ]
    }
  ],
  "nodes": [
    {
      "children": [
        1
      ],
      "matrix": [
        0.2617451846599579,
        0.0,
        0.0,
        0.0,
        0.0,
        5.811910611884971e-17,
        -0.2617451846599579,
        0.0,
        0.0,
        0.2617451846599579,
        5.811910611884971e-17,
        0.0,
        0.0,
        0.0,
        0.0,
        1.0
      ],
      "name": "Sketchfab_model"
    },
    {
      "children": [
        2,
        3,
        4,
        5,
        6,
        7,
        8,
        9,
        10,
        11,
        12,
        13,
        14
      ],
      "name": "model.obj.cleaner.materialmerger.gles"
    },
    {
      "mesh": 0,
      "name": "Object_2"
    },
    {
      "mesh": 1,
      "name": "Object_3"
    },
    {
      "mesh": 2,
      "name": "Object_4"
    },
    {
      "mesh": 3,
      "name": "Object_5"
    },
    {
      "mesh": 4,
      "name": "Object_6"
    },
    {
      "mesh": 5,
      "name": "Object_7"
    },
    {
      "mesh": 6,
      "name": "Object_8"
    },
    {
      "mesh": 7,
      "name": "Object_9"
    },
    {
      "mesh": 8,
      "name": "Object_10"
    },
    {
      "mesh": 9,
      "name": "Object_11"
    },
    {
      "mesh": 10,
      "name": "Object_12"
    },
    {
      "mesh": 11,
      "name": "Object_13"
    },
    {
      "mesh": 12,
      "name": "Object_14"
    }
  ],
  "samplers": [
    {
      "magFilter": 9729,
      "minFilter": 9987,
      "wrapS": 10497,
      "wrapT": 10497
    }
  ],
  "scene": 0,
  "scenes": [
    {
      "name": "Sketchfab_Scene",
      "nodes": [
        0
      ]
    }
  ],
  "textures": [
    {
      "sampler": 0,
      "source": 0
    }
  ]
}
